<svg viewBox="0 0 96 96" xmlns="http://www.w3.org/2000/svg" xmlns:xlink="http://www.w3.org/1999/xlink" id="Icons_Puzzle" overflow="hidden"><style>
.MsftOfcThm_Accent4_Fill {
 fill:#FFC000; 
}
</style>
<path d="M59.7 66.7C53.1 66.9 50.7 58.4 55.4 53.5L56.1 52.8C61 48.1 69.7 50.3 69.5 56.9 69.4 60.7 73.9 65.3 76.6 62.6L88 51.2 71 34.2C68.3 31.5 72.9 27 76.7 27.1 83.3 27.3 85.5 18.6 80.8 13.7L80.1 13C75.2 8.3 66.7 10.7 66.9 17.3 67 21.1 62.5 25.7 59.8 23L42.8 6 31.3 17.4C28.6 20.1 33.2 24.6 37 24.5 43.6 24.3 46 32.8 41.3 37.7L40.6 38.4C35.7 43.1 27 40.9 27.2 34.3 27.3 30.5 22.8 25.9 20.1 28.6L8 40.8 25 57.8C27.7 60.5 23.1 65 19.3 64.9 12.7 64.7 10.5 73.4 15.2 78.3L15.9 79C20.8 83.7 29.3 81.3 29.1 74.7 29 70.9 33.5 66.3 36.2 69L53.2 86 65.4 73.8C68.1 71.1 63.6 66.6 59.7 66.7Z" fill="#FFC000"/></svg>